<?xml version="1.0" encoding="utf-8"?>
<!-- Generator: Adobe Illustrator 23.0.0, SVG Export Plug-In . SVG Version: 6.00 Build 0)  -->
<svg version="1.1" id="图层_1" xmlns="http://www.w3.org/2000/svg" xmlns:xlink="http://www.w3.org/1999/xlink" x="0px" y="0px"
	 viewBox="0 0 878 274" style="enable-background:new 0 0 878 274;" xml:space="preserve">
<style type="text/css">
	.st0{fill:#3484C6;}
	.st1{fill:#F1EC61;}
	.st2{fill:#E51F62;}
	.st3{fill:#29ABE2;}
	.st4{fill:#4DA8F4;}
</style>
<g>
	<path class="st0" d="M185.58,245h-77.78c-45.68,0-85.63-33.28-91.13-78.62c-0.45-3.76-0.67-7.52-0.67-11.17
		c0-1.52,0.06-3.03,0.11-4.55c0.06-1.57,0.17-3.09,0.34-4.6c0.17-1.52,0.34-2.97,0.56-4.49v-0.06c0.45-2.92,1.07-5.84,1.8-8.7
		c2.97-11.45,8.14-22.05,15.04-31.31c1.74-2.3,3.59-4.49,5.5-6.62v-0.06c1.01-1.07,1.96-2.08,2.97-3.09
		c1.07-1.07,2.19-2.13,3.37-3.2c0.95-0.9,1.96-1.74,3.03-2.58c1.12-0.95,2.24-1.85,3.37-2.69c2.3-1.74,4.71-3.31,7.18-4.83
		c1.8-1.12,3.65-2.13,5.56-3.09c1.18-0.67,2.41-1.23,3.65-1.8c0.28-0.17,0.56-0.28,0.84-0.34c1.12-0.56,2.24-1.01,3.37-1.46
		c2.13-0.84,4.26-1.63,6.45-2.3c2.81-0.9,5.67-1.63,8.59-2.19c2.97-0.62,5.95-1.07,8.92-1.4c2.97-0.28,6.06-0.45,9.15-0.45
		c1.57,0,3.14,0.06,4.71,0.17c0.39,0,0.84,0,1.23,0.06c0.73,0,1.4,0.06,2.13,0.17c0.17,0,0.28,0.06,0.45,0.06h0.17
		c-23.51,39.22-17.17,90.85,16.72,124.75L185.58,245z"/>
	<path class="st1" d="M195.23,149.38c0.22,2.58,0.34,5.22,0.34,7.86v81.93l-56.45-56.45c-2.24-2.24-4.32-4.6-6.34-7.01
		c-1.57-1.91-3.03-3.93-4.38-5.95c-12.85-18.52-18.46-40.85-16.16-62.46c0.11-1.01,0.22-2.02,0.39-2.97
		c0.56-4.15,1.46-8.25,2.64-12.29c0.22-0.84,0.5-1.68,0.79-2.53c1.12-3.48,2.47-6.85,3.98-10.16c0.45-1.01,0.95-1.96,1.46-2.92
		c0.51-0.95,1.01-1.91,1.52-2.81c0.06-0.06,0.11-0.17,0.11-0.22c0.56-0.95,1.07-1.85,1.68-2.75c0.56-0.95,1.18-1.85,1.8-2.81
		c1.96,0.45,3.87,1.01,5.78,1.63c0.34,0.06,0.62,0.17,0.95,0.28c1.57,0.5,3.09,1.01,4.55,1.63c0.06,0,0.11,0.06,0.17,0.06
		c1.01,0.39,2.02,0.79,2.97,1.23c0.9,0.34,1.74,0.73,2.58,1.18c3.76,1.74,7.35,3.82,10.77,6.06c0.95,0.56,1.85,1.23,2.69,1.85
		c0.56,0.39,1.07,0.79,1.57,1.12c1.07,0.79,2.08,1.63,3.09,2.47c1.07,0.84,2.08,1.74,3.09,2.64c1.01,0.84,1.96,1.8,2.92,2.75
		c0.95,0.9,1.91,1.85,2.81,2.86c1.57,1.63,3.03,3.37,4.38,5.11c1.12,1.35,2.19,2.69,3.14,4.1c0.06,0.06,0.11,0.11,0.17,0.22
		c1.12,1.51,2.13,3.09,3.14,4.71c1.07,1.68,2.02,3.42,2.97,5.16c0.62,1.12,1.18,2.24,1.74,3.37c0.17,0.39,0.39,0.79,0.56,1.18
		c0.22,0.39,0.39,0.73,0.56,1.18c0.11,0.17,0.17,0.39,0.28,0.56c0.11,0.22,0.17,0.45,0.28,0.67c0.95,2.19,1.85,4.43,2.64,6.73
		c0.79,2.24,1.46,4.6,2.08,6.9c0.34,1.18,0.62,2.36,0.84,3.54c0.28,1.18,0.51,2.36,0.73,3.54c0.17,1.01,0.34,2.02,0.51,3.03
		c0.22,1.68,0.45,3.42,0.62,5.16C195.18,148.99,195.23,149.15,195.23,149.38z"/>
	<path class="st0" d="M290.63,116.83c0,1.68-0.06,3.42-0.17,5.16c-0.11,1.63-0.22,3.25-0.39,4.88c0,0.11-0.06,0.28-0.06,0.39
		c-8.42-3.7-17.62-5.72-27.1-5.72c-2.75,0-5.56,0.17-8.31,0.5c-20.15,2.47-37.32,13.92-47.92,30.25
		c-2.08-44.44-31.71-82.15-72.67-94.05c1.12-1.29,2.3-2.52,3.48-3.7c1.23-1.23,2.52-2.47,3.82-3.65c2.64-2.36,5.33-4.49,8.14-6.51
		c2.92-2.08,5.89-3.93,8.98-5.56c1.4-0.79,2.81-1.46,4.21-2.13c1.12-0.56,2.24-1.07,3.42-1.57c0.67-0.28,1.35-0.56,2.02-0.79
		c1.29-0.56,2.58-1.01,3.87-1.46c1.18-0.39,2.36-0.79,3.59-1.12c0.67-0.22,1.4-0.45,2.08-0.62c1.29-0.39,2.58-0.67,3.93-0.95
		c1.63-0.39,3.25-0.67,4.88-0.95c1.63-0.28,3.25-0.5,4.88-0.67c1.01-0.11,2.08-0.22,3.09-0.28c0.95-0.11,1.91-0.17,2.86-0.17
		c1.35-0.06,2.64-0.11,3.93-0.11c1.29,0,2.58,0.06,3.93,0.11c0.95,0,1.91,0.06,2.86,0.17c1.01,0.06,2.08,0.17,3.09,0.28
		c1.63,0.17,3.25,0.39,4.88,0.67c1.63,0.28,3.25,0.56,4.88,0.95c1.35,0.28,2.64,0.56,3.93,0.95c0.67,0.17,1.4,0.39,2.08,0.62
		c1.23,0.34,2.41,0.73,3.59,1.12c1.29,0.45,2.58,0.9,3.87,1.46c0.67,0.22,1.35,0.5,2.02,0.79c1.18,0.51,2.3,1.01,3.42,1.57
		c1.4,0.67,2.81,1.35,4.21,2.13c1.01,0.56,2.02,1.12,3.03,1.74c1.01,0.56,1.96,1.12,2.92,1.8c1.01,0.62,2.02,1.29,3.03,2.02
		c2.81,2.02,5.56,4.15,8.14,6.51c0.95,0.9,1.96,1.8,2.92,2.75c0.95,0.9,1.85,1.85,2.81,2.86c0.9,0.95,1.8,1.96,2.69,3.03
		c0.9,1.01,1.8,2.08,2.64,3.14C284.63,78.62,290.69,97.7,290.63,116.83z"/>
	<path class="st2" d="M283.44,135.16c-0.23,1.71-0.58,3.49-0.92,5.21c-0.15,0.86-0.34,1.78-0.6,2.65c-0.2,0.92-0.39,1.84-0.71,2.71
		c-0.2,0.86-0.46,1.73-0.72,2.6c-0.47,1.62-0.94,3.19-1.59,4.77c-0.45,1.23-0.9,2.45-1.4,3.68c-0.09,0.29-0.17,0.58-0.32,0.82
		c-0.45,1.17-0.97,2.29-1.49,3.41c-0.24,0.47-0.42,0.94-0.72,1.36c-0.93,2.12-2.09,4.2-3.31,6.23c-0.53,1.01-1.11,1.96-1.76,2.92
		c-0.78,1.31-1.62,2.57-2.57,3.85c-0.19,0.36-0.5,0.72-0.8,1.09c-1.14,1.63-2.35,3.21-3.67,4.79L211.9,242.7l-4.54-48.78
		c-2.65-28.44,15.77-55.23,43.67-61.27c2.32-0.5,4.6-0.88,6.89-1.09c2.4-0.22,4.82-0.28,7.14-0.21c2.38,0.12,4.71,0.35,7,0.7
		c0.92,0.2,1.83,0.34,2.75,0.53c1.55,0.31,3.05,0.67,4.56,1.15C280.75,134.11,282.15,134.6,283.44,135.16z"/>
	<path class="st0" d="M318.63,195.9c-3.42,28.34-28.45,49.1-56.96,49.1h-44.84l54.38-54.38c13.08-13.08,22.05-28.79,26.77-45.45
		v-0.06c0.22,0.17,0.45,0.34,0.62,0.5c0.73,0.56,1.4,1.18,2.08,1.8c0.62,0.56,1.29,1.18,1.91,1.85c1.63,1.57,3.03,3.2,4.38,4.88
		c0.62,0.79,1.23,1.63,1.85,2.47c1.29,1.8,2.41,3.65,3.42,5.56c1.35,2.41,2.47,4.88,3.37,7.46c0.34,0.84,0.62,1.74,0.9,2.58
		c0.56,1.8,1.01,3.59,1.4,5.39C319.08,183.44,319.42,189.56,318.63,195.9z"/>
</g>
<g>
	<path class="st3" d="M373.6,91.92c0,1.11-0.37,3.02-1.09,5.73c-0.73,2.71-2.19,4.84-4.38,6.41c-2.19,1.56-4.31,2.47-6.36,2.71
		c-2.05,0.24-4.45,0.82-7.19,1.72c-2.75,0.9-4.88,1.79-6.41,2.66c-1.53,0.87-3.11,1.3-4.74,1.3c-1.63,0-2.76-0.71-3.39-2.14
		c-0.62-1.42-0.94-3.04-0.94-4.84c0-2.57,1.08-3.96,3.23-4.17c0.76-0.07,2.43-0.57,5-1.51c2.57-0.94,4.29-2.03,5.16-3.28
		c0.87-1.25,1.3-2.71,1.3-4.38s-0.19-2.74-0.57-3.23c-0.38-0.49-1.09-0.68-2.14-0.57c-1.04,0.1-1.91,0.16-2.61,0.16
		c-2.99,0-5.02-0.64-6.09-1.93c-1.08-1.28-1.61-2.48-1.61-3.59c0-1.11,0.64-2.22,1.93-3.33c1.29-1.11,2.55-1.56,3.8-1.35
		c0.63,0.07,1.18,0.1,1.67,0.1c1.74,0,3.28-0.47,4.64-1.41s2.22-2.05,2.6-3.33c0.38-1.28,0.83-2.15,1.35-2.6
		c0.52-0.45,1.34-0.68,2.45-0.68c1.11,0,1.82,0.87,2.14,2.6c0.31,1.74,1.53,2.48,3.65,2.24c2.12-0.24,4.03-0.37,5.73-0.37
		c1.7,0,2.55,0.21,2.55,0.62s-0.23,1.08-0.68,1.98c-0.45,0.9-0.82,2.5-1.09,4.79c-0.14,1.04-2.54,2.26-7.19,3.65
		c-2.02,0.56-3.02,2.54-3.02,5.94c0,1.81,0.5,2.71,1.51,2.71c1.01,0,2.36-0.29,4.06-0.89c1.7-0.59,3.11-1.18,4.22-1.77
		c1.11-0.59,1.81-0.89,2.08-0.89C373.46,90.98,373.6,91.3,373.6,91.92z M375.79,62.23c0,0.42-0.1,0.87-0.31,1.35
		c-0.21,0.49-0.8,1.2-1.77,2.14s-2.03,1.62-3.18,2.03c-1.15,0.42-3.14,0.8-5.99,1.15l-17.19,2.08c-1.53,0-2.83-0.61-3.91-1.82
		c-1.08-1.21-1.61-2.59-1.61-4.12c0-1.53,0.5-2.76,1.51-3.7s2.03-1.41,3.07-1.41c0.35,0,0.62,0.05,0.83,0.16
		c0.21,0.1,0.57,0.16,1.09,0.16c0.52,0,1.34-0.24,2.45-0.73c3.82-1.67,7.38-2.5,10.68-2.5c3.3,0,6.2,0.38,8.7,1.15
		c2.5,0.77,4.06,1.44,4.69,2.03C375.48,60.79,375.79,61.47,375.79,62.23z M421.84,59.52c0,1.53-0.73,3.51-2.19,5.94
		c-1.46,2.43-3.65,3.65-6.56,3.65c-0.7,0-1.42-0.07-2.19-0.21c-2.5-0.42-5.56-0.62-9.17-0.62c-0.9,0-1.53,0.23-1.88,0.68
		c-0.35,0.45-0.52,1.16-0.52,2.14c-0.07,4.52-0.31,8.46-0.73,11.83c-0.42,3.37-0.62,7.87-0.62,13.49l0.42,15.32
		c0,4.17-0.49,7.31-1.46,9.43s-2.22,3.18-3.75,3.18c-0.9,0-1.51-0.24-1.82-0.73c-0.31-0.49-0.47-1.55-0.47-3.18
		c0-1.63,0.24-5.8,0.73-12.5c0.49-6.7,0.73-12.94,0.73-18.7c0-1.39-0.16-2.08-0.47-2.08s-0.68,0.49-1.09,1.46
		c-5.35,12.36-8.77,19.66-10.26,21.88c-1.49,2.22-2.95,3.92-4.38,5.1c-1.42,1.18-2.76,1.77-4.01,1.77c-2.02,0-3.68-1.02-5-3.07
		c-1.32-2.05-1.98-3.49-1.98-4.32c0-0.48,0.54-0.73,1.62-0.73c1.08,0,1.98-0.29,2.71-0.88c0.73-0.59,2.22-2.4,4.48-5.42
		c2.26-3.02,5.21-7.34,8.86-12.97c3.65-5.63,6.11-9.85,7.4-12.66c1.28-2.81,1.93-4.86,1.93-6.15c0-1.28-0.26-1.93-0.78-1.93
		c-0.52,0-0.96,0.04-1.3,0.1c-3.4,0.62-6.01,0.94-7.81,0.94c-1.81,0-3.21-0.5-4.22-1.51c-1.01-1.01-1.51-2.08-1.51-3.23
		c0-1.15,0.26-2.52,0.78-4.12c0.52-1.6,1.44-2.4,2.76-2.4c0.76,0,1.42,0.17,1.98,0.52c0.56,0.35,1.15,0.52,1.77,0.52
		c1.53,0,2.85-0.29,3.96-0.89c1.11-0.59,3.13-1.06,6.04-1.41c2.92-0.35,6.11-0.52,9.58-0.52c5.63,0,9.48,0.42,11.56,1.25
		c0.9,0.35,1.79,0.52,2.66,0.52c0.87,0,1.56-0.12,2.08-0.37c0.52-0.24,1.01-0.36,1.46-0.36C421.61,58.27,421.84,58.69,421.84,59.52z
		 M428.92,107.03c0,0.77-1.16,2.19-3.49,4.27c-2.33,2.08-4.48,3.54-6.46,4.38c-1.98,0.83-3.51,1.25-4.58,1.25
		c-1.08,0-2.14-0.59-3.18-1.77c-1.04-1.18-2.12-3.06-3.23-5.63c-1.11-2.57-2.28-6.65-3.49-12.24c-1.22-5.59-1.82-9.08-1.82-10.47
		c0-0.76,0.26-1.3,0.78-1.62c0.52-0.31,0.92-0.47,1.2-0.47c0.83,0,2.08,1.56,3.75,4.69c0.49,0.83,1.63,2.19,3.44,4.06
		c1.8,1.88,3.92,3.79,6.35,5.73c2.43,1.95,4.27,3.73,5.52,5.37c1.25,1.63,2.43,2.31,3.54,2.03c0.35-0.14,0.71-0.21,1.09-0.21
		C428.73,106.4,428.92,106.61,428.92,107.03z"/>
	<path class="st3" d="M532.8,59c0,0.62-0.56,1.98-1.67,4.06c-1.11,2.08-2.95,4.06-5.52,5.94c-2.57,1.88-4.9,2.81-6.98,2.81
		c-2.08,0-4.9-0.54-8.44-1.61c-3.54-1.08-8.02-1.96-13.44-2.66c-5.42-0.69-10.84-1.04-16.25-1.04c-8.75,0-15.42,0.87-20,2.6
		c-1.53,0.56-3.8,1.09-6.82,1.62s-5.25,0.78-6.67,0.78c-1.42,0-2.38-0.33-2.87-0.99c-0.49-0.66-0.73-1.89-0.73-3.7
		c0-5.63,1.01-8.44,3.02-8.44c0.56,0,1.25,0.19,2.08,0.57c0.83,0.38,1.68,0.57,2.55,0.57c0.87,0,2.6-0.43,5.21-1.3
		c2.6-0.87,6.06-1.48,10.37-1.82c4.31-0.35,9.97-0.52,16.98-0.52c12.99,0,22.88,0.66,29.69,1.98c4.79,0.9,9.27,1.35,13.44,1.35
		c1.81,0,3.07-0.14,3.8-0.42c0.73-0.28,1.28-0.42,1.67-0.42C532.6,58.38,532.8,58.58,532.8,59z M493.62,74.52
		c0,1.11-0.42,2.12-1.25,3.02c-2.08,2.22-3.67,5.14-4.74,8.75c-1.08,3.61-1.72,6.15-1.93,7.61c-0.21,1.46-0.54,2.55-0.99,3.28
		c-0.45,0.73-1.25,1.29-2.4,1.67c-1.15,0.38-3.11,0.59-5.89,0.62c-2.78,0.04-5.59,0.33-8.44,0.89c-2.85,0.56-9.17,2.08-18.96,4.58
		c-0.76,0.21-1.39,0.31-1.88,0.31c-1.39,0-2.08-0.69-2.08-2.08c0-0.76,0.28-2.03,0.83-3.8c0.55-1.77,1.39-2.83,2.5-3.18
		c1.67-0.49,3.21-1.82,4.64-4.01c1.42-2.19,2.14-4.29,2.14-6.3c0-2.01-0.43-3.71-1.3-5.11c-0.87-1.39-1.3-2.45-1.3-3.18
		s0.17-1.23,0.52-1.51c0.35-0.28,0.87-0.43,1.56-0.47c0.69-0.03,1.37-0.05,2.03-0.05c0.66,0,1.75-0.14,3.28-0.42
		c9.79-2.22,17.4-3.33,22.82-3.33c0.83,0,1.67,0.07,2.5,0.21c0.83,0.14,1.65,0.21,2.45,0.21c0.8,0,1.44-0.09,1.93-0.26
		c0.49-0.17,1.02-0.26,1.62-0.26c0.59,0,1.13,0.28,1.61,0.83C493.38,73.1,493.62,73.76,493.62,74.52z M461.43,92.76
		c0.56,0,1.15-0.07,1.77-0.21c6.04-1.46,10.8-2.36,14.27-2.71c0.97-0.14,1.63-0.38,1.98-0.73c0.35-0.35,0.87-1.32,1.56-2.92
		c0.69-1.6,1.04-2.66,1.04-3.18s-0.24-0.87-0.73-1.04c-0.49-0.17-1.62-0.26-3.39-0.26c-1.77,0-4.52,0.43-8.23,1.3
		c-3.72,0.87-5.96,1.51-6.72,1.93c-0.76,0.42-1.22,0.99-1.35,1.72c-0.14,0.73-0.49,1.77-1.04,3.13c-0.56,1.35-0.83,2.07-0.83,2.14
		C459.76,92.48,460.32,92.76,461.43,92.76z M515.5,76.4c0,1.04-0.42,2.29-1.25,3.75c-0.83,1.46-1.51,3.75-2.03,6.88
		c-0.52,3.13-1.3,9.9-2.34,20.32c-0.35,3.54-1.3,6.74-2.87,9.58c-1.56,2.85-3.27,4.72-5.1,5.63c-1.84,0.9-4.36,1.35-7.55,1.35
		c-3.2,0-7.02-0.28-11.46-0.83c-4.45-0.56-7.81-1.32-10.11-2.29c-2.29-0.97-3.44-1.65-3.44-2.03c0-0.38,0.92-0.82,2.76-1.3
		c1.84-0.49,5.66-1.21,11.46-2.19c5.8-0.97,9.43-1.46,10.89-1.46c2.29-0.07,4.34-1.34,6.15-3.8c1.81-2.46,2.92-5.71,3.33-9.74
		c0.83-7.5,1.37-12.05,1.62-13.65c0.24-1.6,0.57-3,0.99-4.22c0.42-1.21,0.62-2.2,0.62-2.97c0-0.76-0.31-1.41-0.94-1.93
		c-0.62-0.52-0.94-0.99-0.94-1.41c0-0.42,0.94-0.97,2.81-1.67c1.88-0.69,3.26-1.04,4.17-1.04C514.42,73.38,515.5,74.38,515.5,76.4z"
		/>
	<path class="st3" d="M636.57,84.63c0,0.56-0.96,2.38-2.87,5.47c-1.91,3.09-3.63,5.3-5.16,6.62c-1.53,1.32-3.11,1.98-4.74,1.98
		c-1.63,0-3.59-0.52-5.89-1.56c-9.45-4.24-19.21-6.36-29.28-6.36c-12.29,0-24.45,3.09-36.46,9.27c-1.25,0.62-2.42,0.94-3.49,0.94
		c-1.08,0-2.07-0.38-2.97-1.15c-0.9-0.76-1.35-2.59-1.35-5.47c0-2.88,0.12-4.84,0.37-5.89c0.24-1.04,0.64-1.56,1.2-1.56
		c0.56,0,1.09,0.09,1.62,0.26c0.52,0.17,1.39,0.26,2.6,0.26c1.21,0,2.38-0.14,3.49-0.42c5.63-1.32,11.5-2.46,17.61-3.44
		c0.76-0.14,1.35-0.37,1.77-0.68s0.62-0.92,0.62-1.82c0-3.19-0.42-5.19-1.25-5.99c-0.83-0.8-1.74-1.06-2.71-0.78
		c-2.64,0.83-5.63,1.55-8.96,2.14c-3.33,0.59-5.52,0.89-6.56,0.89c-1.04,0-1.84-0.35-2.4-1.04c-0.56-0.69-0.83-1.74-0.83-3.13
		c0-1.39,0.12-2.9,0.37-4.53c0.24-1.63,0.78-2.45,1.61-2.45c0.21,0,0.63,0.12,1.25,0.37c0.62,0.24,1.32,0.36,2.08,0.36
		c0.76,0,1.91-0.21,3.44-0.62c1.53-0.42,3.3-0.78,5.31-1.09c2.01-0.31,3.32-0.73,3.91-1.25c0.59-0.52,0.8-1.21,0.62-2.08
		c-0.17-0.87-0.26-1.68-0.26-2.45c0-2.29,0.87-3.44,2.6-3.44c1.11,0,2.31,0.59,3.59,1.77c1.28,1.18,2.41,2.74,3.39,4.69
		c0.83,1.53,2.85,2.29,6.04,2.29c1.81,0,3.61-0.17,5.42-0.52c1.8-0.35,4.2-0.59,7.19-0.73c2.15-0.14,3.47-0.94,3.96-2.4
		c0.9-2.71,1.62-4.5,2.14-5.37c0.52-0.87,1.13-1.3,1.82-1.3c1.88,0,2.81,1.22,2.81,3.65l-0.42,4.38c0,0.77,0.35,1.18,1.04,1.25
		c2.64,0.14,5.47,0.47,8.49,0.99c3.02,0.52,5.26,1.01,6.72,1.46c1.46,0.45,2.19,1.04,2.19,1.77c0,0.73-0.57,1.81-1.72,3.23
		c-1.15,1.42-2.57,2.14-4.27,2.14c-1.7,0-3.8-0.21-6.3-0.62c-2.71-0.49-4.65-0.73-5.83-0.73c-1.18,0-1.95,0.21-2.29,0.62
		c-0.35,0.42-0.82,1.88-1.41,4.38c-0.59,2.5-0.89,4.05-0.89,4.64c0,0.59,0.38,0.96,1.15,1.09c2.64,0.42,5.09,0.96,7.35,1.61
		c2.26,0.66,5.14,0.99,8.65,0.99c3.51,0,7.97-0.42,13.39-1.25c0.49-0.07,1.02-0.1,1.61-0.1C636.27,83.9,636.57,84.14,636.57,84.63z
		 M583.95,100.57c0,0.97-1.44,3.25-4.32,6.82c-2.88,3.58-6.7,6.62-11.46,9.12c-4.76,2.5-8.39,3.75-10.89,3.75
		c-1.39,0-2.52-0.5-3.39-1.51c-0.87-1.01-1.3-2.27-1.3-3.8c0-1.53,0.47-3.26,1.41-5.21c0.94-1.94,2.03-2.92,3.28-2.92
		c0.35,0,0.82,0.05,1.41,0.16c0.59,0.1,1.3,0.16,2.14,0.16c0.83,0,1.91-0.35,3.23-1.04c2.36-1.25,4.48-2.2,6.36-2.87
		c1.88-0.66,3.39-1.02,4.53-1.09c1.15-0.07,2.14-0.1,2.97-0.1c1.25,0,2.41-0.29,3.49-0.89c1.08-0.59,1.77-0.89,2.08-0.89
		S583.95,100.36,583.95,100.57z M581.35,82.34c0.21,0,1.28-0.09,3.23-0.26c1.94-0.17,3.91-0.26,5.89-0.26s3.35-0.19,4.12-0.57
		c0.76-0.38,1.25-0.76,1.46-1.15c0.21-0.38,0.57-1.63,1.09-3.75c0.52-2.12,0.78-3.28,0.78-3.49c0-0.9-0.45-1.35-1.35-1.35
		c-1.6,0-4.41,0.07-8.44,0.21c-4.03,0.14-6.36,0.42-6.98,0.83s-0.99,1.03-1.09,1.82c-0.1,0.8-0.3,1.96-0.57,3.49
		c-0.28,1.53-0.42,2.4-0.42,2.6C579.06,81.71,579.82,82.34,581.35,82.34z M595.2,99.84c0.49,0,0.9,0.24,1.25,0.73
		c1.04,1.32,3.66,2.43,7.87,3.33c4.2,0.9,8.13,2.07,11.77,3.49c3.65,1.42,5.94,2.43,6.88,3.02c0.94,0.59,1.41,1.09,1.41,1.51
		c0,0.77-1.75,2.5-5.26,5.21c-3.51,2.71-6.51,4.06-9.01,4.06c-1.39,0-2.73-0.42-4.01-1.25c-1.29-0.83-3.21-2.53-5.78-5.1
		c-2.57-2.57-4.27-4.81-5.11-6.72c-0.83-1.91-1.25-3.77-1.25-5.57C593.95,100.74,594.37,99.84,595.2,99.84z"/>
	<path class="st3" d="M736.9,105.26c0.97,0,1.79-0.26,2.45-0.78c0.66-0.52,1.13-0.78,1.41-0.78c0.28,0,0.42,0.21,0.42,0.62
		c0,1.25-1.37,3.72-4.12,7.4c-2.75,3.68-5.9,5.52-9.48,5.52c-3.58,0-8.04-1.56-13.39-4.69c-1.67-0.97-3.89-1.74-6.67-2.29
		c-2.78-0.55-4.6-0.83-5.47-0.83c-0.87,0-1.41,0.17-1.61,0.52c-0.21,0.35-0.35,0.94-0.42,1.77c-0.21,3.47-1.35,6.55-3.44,9.22
		c-2.08,2.67-3.85,4.38-5.31,5.1c-1.46,0.73-3.18,1.09-5.16,1.09s-3.82-0.4-5.52-1.2c-1.7-0.8-2.55-1.39-2.55-1.77
		c0-0.38,0.14-0.61,0.42-0.68c0.28-0.07,1.06-0.1,2.34-0.1s3.11-0.78,5.47-2.34c2.36-1.56,4.17-3.32,5.42-5.26
		c1.25-1.94,1.88-3.37,1.88-4.27c0-0.9-0.1-1.49-0.31-1.77c-0.21-0.28-1.04-0.42-2.5-0.42s-4.22,0.31-8.28,0.94
		c-4.06,0.62-8.53,1.62-13.39,2.97c-4.86,1.35-8.16,2.03-9.9,2.03c-1.74,0-3.37-0.19-4.9-0.57c-1.53-0.38-2.43-0.94-2.71-1.67
		c-0.28-0.73-0.42-1.46-0.42-2.19s0.17-1.42,0.52-2.08c0.35-0.66,0.75-1.08,1.2-1.25c0.45-0.17,1.04-0.26,1.77-0.26
		s1.6-0.1,2.6-0.31c1.01-0.21,1.79-0.45,2.34-0.73c2.01-0.97,5.71-1.77,11.1-2.4c5.38-0.62,11.34-1.01,17.87-1.15
		c2.22-0.21,3.33-0.8,3.33-1.77c0-0.56-0.44-1.41-1.3-2.55c-0.87-1.15-2.05-2.08-3.54-2.81c-1.5-0.73-2.9-1.09-4.22-1.09
		c-1.32,0-2.5,0.17-3.54,0.52c-5.07,1.46-8.53,2.19-10.37,2.19c-1.84,0-3.18-0.49-4.01-1.46c-0.83-0.97-1.25-1.89-1.25-2.76
		c0-0.87,0.29-1.62,0.88-2.24c0.59-0.62,1.21-0.94,1.88-0.94c0.66,0,1.13,0.26,1.41,0.78c0.28,0.52,0.69,0.78,1.25,0.78
		c0.56,0,1.89-0.29,4.01-0.88c2.12-0.59,5.99-1.25,11.62-1.98c5.63-0.73,9.93-1.09,12.92-1.09c2.99,0,4.91,0.07,5.78,0.21
		c0.87,0.14,1.93,0.21,3.18,0.21s2.88-0.1,4.9-0.31s3.94-0.31,5.78-0.31c1.84,0,3.35,0.31,4.53,0.94c1.18,0.62,1.77,1.44,1.77,2.45
		c0,1.01-1.7,2.4-5.11,4.17c-3.4,1.77-5.52,2.97-6.35,3.59c-1.95,1.39-4.62,2.08-8.02,2.08c-1.95,0-2.92-0.16-2.92-0.47
		s1.32-1.3,3.96-2.97c2.64-1.67,3.96-2.85,3.96-3.54c0-0.49-1.88-0.73-5.63-0.73c-3.75,0-6.3,0.05-7.66,0.16
		c-1.35,0.1-2.03,0.5-2.03,1.2c0,0.28,0.49,1.11,1.46,2.5c0.97,1.39,1.74,2.6,2.29,3.65c0.69,1.6,2.92,2.47,6.67,2.6
		c3.75,0.14,6.89,0.42,9.43,0.83c2.53,0.42,5.26,1.18,8.18,2.29c0.49,0.14,1.13,0.21,1.93,0.21c0.8,0,1.89-0.24,3.28-0.73
		c1.39-0.49,3-0.73,4.84-0.73c1.84,0,3.07,0.1,3.7,0.31C736.17,105.15,736.62,105.26,736.9,105.26z M737.94,62.02
		c0,0.9-0.97,1.82-2.92,2.76c-1.95,0.94-4.52,1.41-7.71,1.41c-3.2,0-6.93-0.52-11.2-1.56s-9.32-1.56-15.16-1.56
		c-8.68,0-17.96,1.15-27.82,3.44c-4.45,1.04-8.16,1.56-11.15,1.56c-4.38,0-6.56-0.97-6.56-2.92c0-0.62,0.28-1.35,0.83-2.19
		c0.55-0.83,1.09-1.25,1.62-1.25c0.52,0,1.01,0.16,1.46,0.47c0.45,0.31,0.95,0.47,1.51,0.47c0.56,0,2.07-0.49,4.53-1.46
		c2.46-0.97,8.14-1.8,17.03-2.5c2.43-0.14,4.41-0.9,5.94-2.29c0.9-0.9,1.86-1.74,2.87-2.5c1.01-0.76,1.62-1.15,1.82-1.15
		c0.97,0,2.55,0.42,4.74,1.25c2.19,0.83,4.13,1.81,5.83,2.92c1.7,1.11,3.28,1.7,4.74,1.77c9.31,0.42,16.01,1.39,20.11,2.92
		c0.35,0.14,1.01,0.21,1.98,0.21c1.94,0,3.35-0.14,4.22-0.42c0.87-0.28,1.47-0.42,1.82-0.42C737.45,60.98,737.94,61.33,737.94,62.02
		z M721.37,69.11c0.83,0,1.68,0.21,2.55,0.62c0.87,0.42,1.3,1.04,1.3,1.88c0,1.67-1.23,3.2-3.7,4.58c-2.47,1.39-3.84,2.4-4.12,3.02
		c-0.56,1.46-1.29,2.43-2.19,2.92c-0.9,0.49-2.22,0.89-3.96,1.2c-1.74,0.31-4.55,0.47-8.44,0.47c-5.42,0-10.25,0.35-14.48,1.04
		c-4.24,0.7-7.02,1.04-8.33,1.04c-1.32,0-2.67-0.42-4.06-1.25c-0.42-0.21-1.18-0.42-2.29-0.63c-2.64-0.55-3.96-1.91-3.96-4.06
		l0.42-3.13c0-1.81-1.15-2.99-3.44-3.54c-1.11-0.21-1.67-0.57-1.67-1.09c0-0.52,1.15-1.01,3.44-1.46c2.29-0.45,4.25-0.68,5.89-0.68
		c1.63,0,3.18-0.14,4.64-0.42c8.06-1.74,15.11-2.6,21.15-2.6c6.04,0,10.7,0.42,13.96,1.25c3.26,0.83,5.19,1.18,5.78,1.04
		C720.45,69.18,720.96,69.11,721.37,69.11z M708.56,78.69c1.18,0,2.14-0.47,2.87-1.41s1.09-1.67,1.09-2.19
		c0-0.52-1.01-1.01-3.02-1.46c-2.01-0.45-4.95-0.68-8.8-0.68c-3.85,0-7.94,0.36-12.24,1.09c-4.31,0.73-6.86,1.32-7.66,1.77
		c-0.8,0.45-1.27,1.03-1.41,1.72l-0.83,2.81c0,0.35,0.19,0.52,0.57,0.52s0.78-0.07,1.2-0.21c6.6-1.94,12.54-2.92,17.82-2.92
		c2.43,0,4.76,0.16,6.98,0.47C707.34,78.53,708.49,78.69,708.56,78.69z"/>
	<path class="st3" d="M841.71,78.9c0,0.76-0.52,2.55-1.56,5.37c-1.04,2.81-2.87,5.38-5.47,7.71c-2.6,2.33-4.72,3.49-6.36,3.49
		c-1.63,0-4.88-1.21-9.74-3.65c-6.25-3.13-12.71-4.69-19.38-4.69c-1.81,0-3.18,0.17-4.12,0.52c-0.94,0.35-1.86,1.32-2.76,2.92
		c-2.02,3.82-3.89,6.91-5.63,9.27c-0.49,0.62-0.73,1.18-0.73,1.67c0,1.25,1.28,1.88,3.85,1.88l9.79-0.31l5.73,0.1
		c1.74,0,2.6-0.35,2.6-1.04c0-0.69-0.23-1.53-0.68-2.5c-0.45-0.97-1.03-1.89-1.72-2.76c-0.7-0.87-1.04-1.49-1.04-1.88
		c0-0.38,0.26-1.11,0.78-2.19c0.52-1.08,1.04-1.61,1.56-1.61c0.52,0,2.1,1.53,4.74,4.58c4.31,5.14,7.64,8.86,10,11.15
		c2.36,2.29,3.54,4.93,3.54,7.92c0,1.18-0.23,2.33-0.68,3.44c-0.45,1.11-1.13,1.67-2.03,1.67c-0.9,0-2.1-0.45-3.59-1.35
		c-1.49-0.9-2.85-1.63-4.06-2.19c-1.22-0.56-2.28-0.94-3.18-1.15c-0.9-0.21-2.8-0.4-5.68-0.57c-2.88-0.17-5.68-0.26-8.39-0.26
		c-11.04,0-19.59,1.22-25.63,3.65c-2.29,0.97-3.92,1.46-4.9,1.46c-0.97,0-1.65-0.33-2.03-0.99c-0.38-0.66-0.57-1.93-0.57-3.8
		c0-1.88,0.24-3.23,0.73-4.06c0.49-0.83,2.14-2.2,4.95-4.12c2.81-1.91,4.93-3.52,6.36-4.84c1.42-1.32,2.97-3.37,4.64-6.15
		c1.67-2.78,2.5-4.51,2.5-5.21c0-0.69-0.56-1.04-1.67-1.04c-1.11,0-4.25,0.85-9.43,2.55c-5.17,1.7-9.08,2.55-11.72,2.55
		c-2.64,0-4.48-0.78-5.52-2.34c-1.04-1.56-1.56-3.98-1.56-7.24c0-3.26,1.29-4.9,3.86-4.9c0.55,0,1.15,0.07,1.77,0.21
		c0.62,0.14,1.37,0.21,2.24,0.21c0.87,0,2.4-0.29,4.58-0.88c2.19-0.59,7.74-1.35,16.67-2.29c8.92-0.94,15.4-1.41,19.43-1.41
		c4.03,0,7.43,0.23,10.21,0.68c2.78,0.45,6.56,1.37,11.36,2.76c2.64,0.7,5.59,1.04,8.86,1.04c3.26,0,5.4-0.35,6.41-1.04
		c1.01-0.69,1.7-1.04,2.08-1.04C841.51,78.17,841.71,78.41,841.71,78.9z M829.73,61.6c0,0.49-0.64,1.74-1.93,3.75
		c-1.29,2.01-2.55,3.25-3.8,3.7c-1.25,0.45-2.62,0.68-4.12,0.68c-1.49,0-3.79-0.26-6.88-0.78c-3.09-0.52-7.71-0.78-13.86-0.78
		c-6.15,0-11.79,0.45-16.93,1.35c-5.35,0.83-9.08,1.25-11.2,1.25c-2.12,0-3.61-0.4-4.48-1.2c-0.87-0.8-1.3-2.38-1.3-4.74
		c0-2.36,0.29-4.03,0.89-5c0.59-0.97,1.37-1.46,2.34-1.46c0.97,0,1.77,0.07,2.4,0.21c0.62,0.14,1.56,0.21,2.81,0.21
		s2.92-0.26,5-0.78c2.08-0.52,3.84-0.89,5.26-1.09c1.42-0.21,4.36-0.31,8.8-0.31c4.44,0,9.27,0.1,14.48,0.31s8.82,0.5,10.83,0.89
		c2.01,0.38,3.92,0.99,5.73,1.82c1.81,0.83,3.06,1.25,3.75,1.25C829,60.88,829.73,61.12,829.73,61.6z"/>
</g>
<g>
	<path class="st4" d="M366.07,197.88c-0.75,6.75-0.38,9.38,1.12,7.88c1.5-0.75,2.75-1.75,3.75-3c1,0.25,1,1.12,0,2.62
		c-1.75,2.25-3.75,4.12-6,5.62c-1.75,1-3.13,1.25-4.12,0.75c-0.75-0.75-0.75-2,0-3.75c1-2.75,1.5-5.5,1.5-8.25
		c0.25-2.5-0.75-3.38-3-2.62c-1.5,0.25-3,0.75-4.5,1.5c-0.75,0-1.12-0.38-1.12-1.12c0-0.5,0.38-1.37,1.12-2.62
		c0.75-1,1.62-1.37,2.62-1.12c2.25,0.75,4.37,0.88,6.38,0.38C366.32,193.63,367.07,194.88,366.07,197.88z M364.57,185.51
		c1.5,1.25,3.5,2.62,6,4.12c-0.25,0.5-0.88,0.75-1.88,0.75c-2.75,0-5-0.38-6.75-1.12c-1-1-1.25-2-0.75-3
		C362.2,185.01,363.32,184.76,364.57,185.51z M389.7,193.01c2.25,0.25,4.37,0,6.38-0.75c1.25,0,1.62,0.5,1.12,1.5
		c-1.5,2-3.38,3-5.62,3c-3.5,0.25-5.75-0.5-6.75-2.25c-0.25-1.25-0.38-2.87-0.38-4.88c0-1.5-1.25-2-3.75-1.5
		c-1,0-1.63,0.88-1.88,2.62c-0.25,3-2.13,4.88-5.62,5.62c-2,0.5-3,0.13-3-1.12c0-0.25,0.62-0.5,1.88-0.75c2.5-1,3.62-3,3.38-6
		c-0.5-2.75,0.75-3.62,3.75-2.62c1.5,0.5,3.12,0.5,4.88,0c2.75-1,3.87,0.13,3.38,3.38C387.2,191.76,387.95,193.01,389.7,193.01z
		 M387.82,199.01c-0.25,1.75-1,3.38-2.25,4.88c4.25,2.25,8.5,3.5,12.75,3.75c1,0.25,0.25,2-2.25,5.25c-1.25,1.5-3,1.37-5.25-0.38
		c-2-2-4.5-4.12-7.5-6.38c-4,3.75-8.13,4.88-12.38,3.38v-1.12c3.75,0.25,7.12-1,10.12-3.75c-1.75-1.5-3.63-2.5-5.62-3
		c-0.75-1.5-0.25-2.25,1.5-2.25l6,3c0.5-0.5,0.75-1.25,0.75-2.25c0.25-1.75-0.75-2.5-3-2.25c-2.25,0-4.12,0.38-5.62,1.12
		c-1-0.25-1.12-0.87-0.38-1.88c0.5-0.5,1.12-0.87,1.88-1.12c3,0.25,5.75,0.25,8.25,0C387.57,196.01,388.57,197.01,387.82,199.01z"/>
	<path class="st4" d="M424.2,183.26c1-0.25,1.88,0.25,2.62,1.5c0.25,0.75,0.12,1.38-0.38,1.88l-1.5,1.12
		c2.25,0.5,4.12,0.63,5.62,0.38c3,0,3.75,1.25,2.25,3.75c-1.25,1.25-2.38,2.25-3.38,3c7,2.75,13,4.5,18,5.25
		c-1.5,3-3.38,4.38-5.62,4.12c-1.25-0.5-2.62-1.12-4.12-1.88c-0.5,2.25-0.88,5-1.12,8.25c-0.25,2.5-1.63,3.25-4.12,2.25
		c-5-0.75-10.12-0.87-15.38-0.38c-3.5,1-5.13,0.13-4.88-2.62c0.25-3.25,0.12-5.75-0.38-7.5c-3.75,1.5-6.88,1.25-9.38-0.75
		c-0.5-1.25-0.5-1.88,0-1.88c6.5-0.5,13-2.25,19.5-5.25l-3.75-2.25c-3,1.25-5.5,1.75-7.5,1.5c-1.75-0.25-2.38-0.87-1.88-1.88
		c1-0.25,2.12-0.62,3.38-1.12C416.95,189.26,420.95,186.76,424.2,183.26z M421.95,202.01c-2.75-0.25-4.5-0.12-5.25,0.38
		c-0.75,1.75-0.38,2.62,1.12,2.62h4.12C422.7,204.51,422.7,203.51,421.95,202.01z M421.57,210.26c0.75-1,0.87-1.88,0.38-2.62
		c-2.5-0.5-4.38-0.5-5.62,0v2.62C418.07,210.51,419.82,210.51,421.57,210.26z M425.7,196.76c-2,1-4.63,2.13-7.88,3.38
		c5.25-0.75,10.12-0.87,14.62-0.38C430.2,198.76,427.95,197.76,425.7,196.76z M423.07,189.63l-2.25,1.5c1.5,0.75,3,1.38,4.5,1.88
		c1.25-0.75,2.37-1.75,3.38-3C426.95,189.51,425.07,189.38,423.07,189.63z M426.45,202.01c-0.5,1-0.5,1.88,0,2.62
		c0.75,0.25,2.62,0.38,5.62,0.38l0.38-3C430.7,201.76,428.7,201.76,426.45,202.01z M432.07,207.26c-1.75-0.5-3.63-0.5-5.62,0
		c-0.5,0.75-0.5,1.75,0,3c2.5,0.25,4.25,0.25,5.25,0L432.07,207.26z"/>
	<path class="st4" d="M463.57,193.76c-2.25,0-4.25,0.25-6,0.75c-1.5,0.25-2.13-0.12-1.88-1.12c0.5-2,1.62-3,3.38-3
		c1.25,0.25,2.75,0.38,4.5,0.38c0-2.25,0.12-4,0.38-5.25c0.25-1.25,1.37-1.5,3.38-0.75c0.75,0.75,1,1.75,0.75,3v3
		c1.75,0.25,3.87,0.25,6.38,0v-5.25c0-1,0.75-1.5,2.25-1.5c2.25,0.75,3.12,1.63,2.62,2.62c-0.25,1-0.38,2.38-0.38,4.12
		c2.5,0.25,4.88,0.25,7.12,0c1,0.25,1.5,0.63,1.5,1.12c0,1.25-1.25,1.88-3.75,1.88c-1.25-0.25-2.88-0.25-4.88,0v4.5
		c8.75,0.75,14.37,0.88,16.88,0.38c-1.5,4.25-3.25,6.13-5.25,5.62c-1-0.25-2.38-0.62-4.12-1.12c-8-2-17-2.37-27-1.12
		c-2.25,0.25-4.63,0.75-7.12,1.5c-1.5,0.75-2.25,0.63-2.25-0.38c0.25-1.5,0.87-2.75,1.88-3.75c0.75-0.5,1.62-0.75,2.62-0.75
		c2.5,0.25,5.5,0.13,9-0.38V193.76z M466.57,203.51c0.5-0.5,1.25-0.38,2.25,0.38c1.25,1.25,1.12,2.38-0.38,3.38c-2,1.5-5,3-9,4.5
		c-1.5,0.75-3,1.25-4.5,1.5c-1.5-0.25-1.88-0.75-1.12-1.5c2.25-1,4.25-2.12,6-3.38C462.07,206.88,464.32,205.26,466.57,203.51z
		 M474.45,193.76c-2.5-0.25-4.63-0.25-6.38,0v4.5h6.38V193.76z M474.45,203.88c0.75-1,1.75-1.12,3-0.38c0.75,0.5,2.12,1.5,4.12,3
		c2.75,1.75,5.5,3.75,8.25,6c0.25,0.5-0.13,0.75-1.12,0.75c-4.75-1.75-9.38-3.75-13.88-6C472.82,206.51,472.7,205.38,474.45,203.88z
		"/>
	<path class="st4" d="M514.57,196.76c3.75-0.5,7.12-0.5,10.12,0c3.75,0.25,5.75,0.88,6,1.88c0.25,1-0.25,1.63-1.5,1.88
		c-1.25,0-2.5,0-3.75,0c-0.5,0-1.5,0.25-3,0.75l0.38,1.12c7.25,0.25,14,0.38,20.25,0.38c-2,4-4.75,5.25-8.25,3.75
		c-2-1-5.75-1.62-11.25-1.88c0.5,3.25,0,5.75-1.5,7.5c-2.75,2.25-6.13,2.5-10.12,0.75c-1.25-0.5-2.5-1.25-3.75-2.25
		c-0.75-0.75-0.75-1.25,0-1.5c1.5,0.75,3,1.25,4.5,1.5c3,0.25,5-0.12,6-1.12c1-1,1.37-2.62,1.12-4.88c-9,0-15.63,0.63-19.88,1.88
		c-1.25,0.5-2,0.13-2.25-1.12c1-2.25,2.25-3.38,3.75-3.38c4.25,0.25,10.25,0.38,18,0.38c-0.5-1-1.12-1.75-1.88-2.25
		c-0.5-0.5-0.38-0.87,0.38-1.12c1-0.25,2.25,0.13,3.75,1.12l2.25-0.75c0.25-1-1.25-1.37-4.5-1.12c-2.75,0-5.62,0.75-8.62,2.25
		c-1.75,0.75-2.38,0.38-1.88-1.12c0.5-0.75,1.25-1.5,2.25-2.25C512.2,197.13,513.32,197.01,514.57,196.76z M523.57,185.51
		c8.25,0.25,13,0.63,14.25,1.12c1,1,0.87,1.63-0.38,1.88c-8-0.5-15.5-0.62-22.5-0.38c-3.5,0-7,0.38-10.5,1.12
		c-1.75,0.75-2.38,0.38-1.88-1.12c0.75-2,1.88-2.87,3.38-2.62c3.25,0.25,6.75,0.25,10.5,0c0.25-1.25,1.37-2,3.38-2.25
		C522.07,183.26,523.32,184.01,523.57,185.51z M514.57,189.26h10.88c2.75-0.75,4,0,3.75,2.25c-0.25,0.75-0.5,1.88-0.75,3.38
		c-1,1.25-2.25,1.25-3.75,0c-3-0.25-6-0.25-9,0c-1.75,1-3,0.88-3.75-0.38c-0.25-1-0.63-2-1.12-3
		C510.57,189.76,511.82,189.01,514.57,189.26z M515.32,191.13c-1,0.75-1.12,1.38-0.38,1.88c6.5,0.25,10,0.13,10.5-0.38
		c0.75-1.25-0.13-1.75-2.62-1.5H515.32z"/>
	<path class="st4" d="M563.32,184.76c1.5-0.25,2.5,0.5,3,2.25c0.25,0.75,0,1.25-0.75,1.5c-2.25,0.25-3.88,0.5-4.88,0.75v2.62
		c1.5,0.25,3,0.5,4.5,0.75c1.5,1.25,0,1.88-4.5,1.88v1.5c1.75,1.25,3.62,2.75,5.62,4.5c0.5,1,0.25,1.5-0.75,1.5
		c-1-0.5-2.62-1.12-4.88-1.88v10.5c0.25,1.75-0.5,2.62-2.25,2.62c-1.25,0-1.88-1.12-1.88-3.38v-10.12c-3.25,3.25-5.75,5.25-7.5,6
		c-0.5,0.5-1.5,0.13-3-1.12c-1-1-1.25-1.75-0.75-2.25c0.5,0,1.88-0.5,4.12-1.5c4-2.25,6.25-4.37,6.75-6.38c-2,0-3.75,0.25-5.25,0.75
		c-1.5,0.25-2.13-0.25-1.88-1.5c0.25-1.25,0.87-1.88,1.88-1.88c2,0.25,3.87,0.25,5.62,0v-2.62c-3,0.25-5.38,0.13-7.12-0.38
		c-1-0.75-0.88-1.25,0.38-1.5C555.82,187.13,560.32,186.26,563.32,184.76z M568.2,186.63c1-0.75,2-1,3-0.75
		c2.5,0.75,5.5,0.88,9,0.38c1.25-0.5,2.37-0.25,3.38,0.75c0.75,1,0.87,1.88,0.38,2.62c-0.5,5.25-0.75,10.88-0.75,16.88
		c3.25,0.25,6,0.38,8.25,0.38c-1,4.5-3.13,6.13-6.38,4.88c-5.75-2-12.88-2.25-21.38-0.75c-1.25,0.25-1.88-0.25-1.88-1.5
		c0.5-1.5,1.5-2.5,3-3h3c0-5.75-0.13-11.25-0.38-16.5C566.95,188.51,567.2,187.38,568.2,186.63z M571.95,193.01h7.5v-2.62
		c0-0.75-0.63-1.12-1.88-1.12h-3.75c-1,0-1.63,0.5-1.88,1.5V193.01z M579.45,196.01h-7.5v3.75h7.5V196.01z M571.95,202.76v3.75h7.5
		v-3.75H571.95z"/>
	<path class="st4" d="M609.07,183.63c0.5,0,0.75,0.13,0.75,0.38c0.25,1.25-1.12,2.62-4.12,4.12v7.5c-0.25,0.5-1,1-2.25,1.5
		c-1,0-1.5-0.5-1.5-1.5v-5.62c-3,2-5,2.5-6,1.5c-1.25-1-2-2-2.25-3c0.25-0.5,0.87-0.87,1.88-1.12
		C599.82,186.88,604.32,185.63,609.07,183.63z M614.7,202.76c0-0.75,0.12-1.25,0.38-1.5c0.25-0.5,0.62-0.75,1.12-0.75
		c0.5,0,1,0.38,1.5,1.12c0.5,1,0.5,2.13,0,3.38c-1.25,2.5-3.13,4.38-5.62,5.62c-5,2.25-9.13,3-12.38,2.25
		c-1.25-0.5-1.88-0.87-1.88-1.12c0-0.5,1.12-0.75,3.38-0.75C609.2,210.01,613.7,207.26,614.7,202.76z M616.57,197.51
		c1.75,0.25,3.5,0.38,5.25,0.38c1-0.25,2.12-0.38,3.38-0.38c1.25,0,2.12,0.38,2.62,1.12v7.5c-0.25,0.75-1,1.25-2.25,1.5
		c-1,0-1.63-0.25-1.88-0.75c0-4.5-0.25-6.87-0.75-7.12H608.7c-0.25,0.25-0.38,0.5-0.38,0.75v5.62c0,1-0.63,1.63-1.88,1.88
		c-1.5,0.25-2.13-0.12-1.88-1.12c0.25-0.75,0.38-1.62,0.38-2.62v-3c0-0.5-0.13-1.12-0.38-1.88c0.5-1.5,1.37-2.25,2.62-2.25
		c0.75,0.25,1.5,0.5,2.25,0.75C611.2,197.63,613.57,197.51,616.57,197.51z M622.57,191.51c0,0.75,0,1.63,0,2.62h1.5
		c4.25-0.25,6.87,0,7.88,0.75c0.5,0.75,0.12,1.25-1.12,1.5H613.2c-1,0-1.88,0.13-2.62,0.38c-0.75,0-1.12-0.25-1.12-0.75
		c0.25-1,1.12-1.75,2.62-2.25c0.75,0,1.37,0.13,1.88,0.38h3.75c0.25-1,0.38-1.88,0.38-2.62c-4,0.25-7.25,0.63-9.75,1.12
		c-1,0-1.25-0.5-0.75-1.5c1-1.5,2.12-2.12,3.38-1.88c2,0.25,4.37,0.38,7.12,0.38v-2.25c-1.75,0-3.63-0.25-5.62-0.75
		c-0.75-0.25-1.12-0.62-1.12-1.12c5,0.25,9.62-0.12,13.88-1.12c1.25-0.5,2.12-0.87,2.62-1.12c0.75,0,1.37,0.63,1.88,1.88
		c0.5,1.5-1.88,2.25-7.12,2.25v1.88h4.88c5,0,8.75,0.13,11.25,0.38c-2,3.75-4,5-6,3.75C629.45,192.13,626.07,191.51,622.57,191.51z
		 M620.7,210.63c-1-0.5-1.75-0.87-2.25-1.12c-0.5-0.5-0.63-1.25-0.38-2.25c0.5-0.5,1.12-0.75,1.88-0.75c1.5,0.5,2.87,1.12,4.12,1.88
		c3.25,1.75,6.38,3.25,9.38,4.5c0.25,0.5-0.25,0.75-1.5,0.75C627.45,212.63,623.7,211.63,620.7,210.63z"/>
	<path class="st4" d="M654.07,185.13c0.75-0.25,1.37-0.75,1.88-1.5c0.75-1,1.62-1,2.62,0c0.5,0.5,0.5,1.12,0,1.88l1.12,0.38
		c3,0.75,4.5,1.25,4.5,1.5c0,0.75-0.38,1.12-1.12,1.12l-4.5-0.75l0.38,1.5c-0.25,0.75-0.63,1.38-1.12,1.88
		c-0.5,0.25-1,0.38-1.5,0.38c-0.75-0.25-1.25-0.75-1.5-1.5c0-1-0.13-1.88-0.38-2.62c-2.5,1.5-4.75,2.5-6.75,3
		c-2.25,0.25-3.88-0.38-4.88-1.88c-0.25-0.5,1.25-1,4.5-1.5C649.57,186.51,651.82,185.88,654.07,185.13z M666.07,193.01
		c4.75,0,9.12,0.38,13.12,1.12c1,0,1.88-0.25,2.62-0.75c1.5,0,2.5,0.75,3,2.25c-0.25,3-0.75,5.62-1.5,7.88
		c-1,0.75-1.63,0.63-1.88-0.38c-0.25-2-0.5-4-0.75-6c0-0.5-1.12-0.87-3.38-1.12c-9.25-0.75-18.38-0.75-27.38,0
		c-1,0.25-1.63,0.75-1.88,1.5c-0.25,1.75-0.5,3.63-0.75,5.62c-0.75,1.5-1.38,1.75-1.88,0.75c-0.5-1-0.75-1.88-0.75-2.62
		c-0.5-3-0.25-5.5,0.75-7.5c1.25-0.5,2.37-0.5,3.38,0c4-0.25,7.88-0.5,11.62-0.75c0-1.5,0.25-2.37,0.75-2.62
		c0.5-0.25,1.12-0.38,1.88-0.38c0.25,0,0.62,0.13,1.12,0.38C665.45,191.13,666.07,192.01,666.07,193.01z M674.7,197.51
		c0.75,0.5,1,1.25,0.75,2.25c-0.25,0.25-0.5,0.75-0.75,1.5c-0.5,1.75-1.38,2.5-2.62,2.25c-3.75-0.25-8.38-0.38-13.88-0.38
		c-0.75,0-1.12,0.25-1.12,0.75c0,1,0.62,1.38,1.88,1.12c4.75-0.25,9.12-0.25,13.12,0c2-0.75,3.5-0.75,4.5,0
		c1,0.75,1.37,1.38,1.12,1.88c-0.5,1.25-0.75,2.62-0.75,4.12c0.25,1-0.63,1.63-2.62,1.88c-0.25,0-0.63-0.12-1.12-0.38
		c-4.75-0.75-10-0.87-15.75-0.38c-0.75,0.5-1.5,0.88-2.25,1.12c-1.5,0.25-2.25-0.38-2.25-1.88c0.5-4,0.38-7.88-0.38-11.62
		c0-1,0.38-1.88,1.12-2.62c0.75-0.25,1.5-0.12,2.25,0.38c4.5-0.25,9-0.25,13.5,0c1-0.25,1.88-0.5,2.62-0.75
		C672.82,196.51,673.7,196.76,674.7,197.51z M661.95,206.88c-3,0-4.63,0.25-4.88,0.75c-0.25,1.25,0.12,1.88,1.12,1.88
		c3.5,0,7.12,0.13,10.88,0.38c2.75,0.25,4-0.5,3.75-2.25C672.57,206.88,668.95,206.63,661.95,206.88z M657.82,201.26
		c3.5-0.25,6.87-0.25,10.12,0c2,0.25,2.87-0.38,2.62-1.88c-0.75-0.5-4.25-0.62-10.5-0.38c-2,0-3,0.38-3,1.12
		S657.32,201.26,657.82,201.26z M667.57,187.38c0.5-0.5,1-1,1.5-1.5c0.5-0.75,1.12-1.5,1.88-2.25c0.75-1,1.62-1,2.62,0
		c0,0.25,0.12,0.5,0.38,0.75c0,0.25,0,0.5,0,0.75l0.38,0.38c2,0.75,4,1.5,6,2.25c2.5,1,3.75,1.63,3.75,1.88
		c0.75,1,0.38,1.5-1.12,1.5c-3.25-1-6.25-2.12-9-3.38c0,2-0.5,3.25-1.5,3.75c-0.75,0.25-1.38,0.13-1.88-0.38
		c0.25-1.5,0.25-2.62,0-3.38c-1.5,1.5-3,2.38-4.5,2.62c-0.25,0-0.5,0-0.75,0c-0.25-0.25-0.63-0.5-1.12-0.75c0-0.25,0-0.5,0-0.75
		c0.25,0,0.5-0.12,0.75-0.38C665.7,188.26,666.57,187.88,667.57,187.38z"/>
	<path class="st4" d="M707.7,189.26c-0.5,0.75-2.13,1.25-4.88,1.5v4.88c1.75,0,3.25,0.13,4.5,0.38c0.5,0.75,0.5,1.38,0,1.88
		c-1.5,0.25-3,0.38-4.5,0.38v4.88c1.75-0.25,3.25-0.5,4.5-0.75c0.5,0,0.75,0.38,0.75,1.12s-0.25,1.25-0.75,1.5
		c-5.25,1.5-10.38,2.88-15.38,4.12c-1,0-1.63-0.5-1.88-1.5c-0.25-1,0-1.62,0.75-1.88c2.5-0.75,5.12-1.37,7.88-1.88v-5.62
		c-2,0.25-3.75,0.5-5.25,0.75c-0.75,0-1-0.5-0.75-1.5c0.25-1,1.12-1.75,2.62-2.25c0.75,0.25,1.88,0.38,3.38,0.38v-4.88
		c-2.25,0-4.25,0.25-6,0.75c-0.75,0.25-1.12-0.12-1.12-1.12c0.25-1.5,1.12-2.5,2.62-3c2.25,0.5,6.12,0.63,11.62,0.38
		C706.82,187.76,707.45,188.26,707.7,189.26z M717.07,205.01c-2.75,0-5,0.25-6.75,0.75c-0.75,0.25-1.25,0-1.5-0.75
		c0.25-1.5,0.87-2.37,1.88-2.62c0.5,0,1.37,0.13,2.62,0.38h3.75v-2.62c-2,0-4,0.13-6,0.38c-0.5-0.25-1-1.62-1.5-4.12
		c-0.5-2.25-0.88-5-1.12-8.25c0-1,0.25-1.88,0.75-2.62c0.5-0.5,1.12-0.75,1.88-0.75c1.25,1,2.5,1.5,3.75,1.5
		c3.25,0.5,6.38,0.38,9.38-0.38c0.75-0.25,1.37-0.5,1.88-0.75c0.75-0.5,1.5-0.38,2.25,0.38c0.75,1,1.12,1.88,1.12,2.62
		c-0.25,2.5-0.5,5-0.75,7.5c0,2.5-0.38,4.12-1.12,4.88c-0.5,0.25-1,0.25-1.5,0c-1.25-0.25-3.13-0.38-5.62-0.38v2.62h5.62
		c1.25,0,2.37,0.25,3.38,0.75c0.25,0.5,0.12,0.88-0.38,1.12c-1.75,0.5-4.5,0.63-8.25,0.38v3c2.75,0.25,7.12,0.5,13.12,0.75
		c1.25,0,0.87,1.12-1.12,3.38c-1.25,1.5-3.25,1.63-6,0.38c-3.25-1-6.63-1.5-10.12-1.5c-3.25,0-6.38,0.25-9.38,0.75
		c-0.75,0.25-1.63,0.5-2.62,0.75c-1,0.5-1.5,0.13-1.5-1.12c0.75-1.75,1.88-2.87,3.38-3.38c0.5,0.25,1.5,0.38,3,0.38
		c2.75,0,5.25-0.12,7.5-0.38V205.01z M712.2,191.13c0.25,1,1.12,1.38,2.62,1.12c1.25-0.5,1.88-1.37,1.88-2.62
		c-0.25-0.75-1.25-1.12-3-1.12C712.2,188.76,711.7,189.63,712.2,191.13z M716.32,194.13c-1,0-2.38,0.13-4.12,0.38
		c0,1.25,0.12,2.13,0.38,2.62c0.75,0.75,2.12,0.88,4.12,0.38C717.2,196.01,717.07,194.88,716.32,194.13z M720.82,191.88
		c1.25,0.25,2.5,0.13,3.75-0.38c0.25-0.75,0.38-1.5,0.38-2.25c-0.25-0.5-0.88-0.75-1.88-0.75c-1,0-1.75,0.13-2.25,0.38
		C720.07,189.88,720.07,190.88,720.82,191.88z M720.45,197.13c0.75,0.25,1.75,0.38,3,0.38c1-0.25,1.5-0.87,1.5-1.88
		c0-0.75-0.13-1.37-0.38-1.88c-1.5,0-2.75,0.13-3.75,0.38C720.57,194.63,720.45,195.63,720.45,197.13z"/>
	<path class="st4" d="M752.7,202.01c0.5-0.5,1.25-0.38,2.25,0.38c1,1,1.12,2,0.38,3c-1,0.75-2.38,1.63-4.12,2.62
		c-1.75,1-3.75,1.88-6,2.62c-1.5,0.5-3.25,0.88-5.25,1.12c-1.5-0.75-1.5-1.37,0-1.88c1.75-0.75,3.62-1.62,5.62-2.62
		c1.5-0.75,3-1.75,4.5-3C750.82,203.51,751.7,202.76,752.7,202.01z M772.2,183.26c2-0.75,3.25-0.38,3.75,1.12
		c0.5,1.25,0.25,2.13-0.75,2.62c-1.5,0.25-3,0.5-4.5,0.75c-3,0.25-6.25,0.63-9.75,1.12c0,1-0.88,1.75-2.62,2.25
		c-1.25,0.75-2.5,1.38-3.75,1.88c-0.75,1,0.38,1.25,3.38,0.75c1.25-0.25,2.5-0.75,3.75-1.5c1.5-1,2.87-1.88,4.12-2.62
		c1-0.5,1.88-0.25,2.62,0.75c0.75,1,0.75,1.75,0,2.25c-0.5,0.25-1.63,0.63-3.38,1.12c-3.5,1.25-6.5,2.5-9,3.75
		c-1.25,1-0.13,1.5,3.38,1.5c1.25,0,2.62,0,4.12,0c1.25,0,2.5-0.25,3.75-0.75l-2.25-1.12c-0.5-0.5-0.63-1.12-0.38-1.88
		c0.5-0.5,1-0.62,1.5-0.38c3,1,5.75,2.13,8.25,3.38c1.75,0.75,2,1.75,0.75,3c-0.25,0.5-1,0.38-2.25-0.38
		c-1.25-0.5-2.5-0.87-3.75-1.12c-2,0.75-3.88,1.12-5.62,1.12v8.25c0.25,3.5-1.63,5-5.62,4.5c-1.5-0.25-3.25-0.87-5.25-1.88
		c-1.25-1-1.63-1.75-1.12-2.25c0-0.25,1.75,0,5.25,0.75c1.5,0.25,2.12-0.75,1.88-3v-5.62c-2-1-3.88-1.25-5.62-0.75
		c-1.5,0.75-2.88,1.25-4.12,1.5c-1,0.25-1.63-0.12-1.88-1.12c0-1,0.87-1.88,2.62-2.62c1.25-0.75,2.62-1.5,4.12-2.25
		c0-0.25-0.75-0.38-2.25-0.38c-0.75,0-1.5,0.13-2.25,0.38c-1.5,0.5-2.38,0.13-2.62-1.12c0-1,0.62-1.75,1.88-2.25
		c1.5-0.75,3.12-1.37,4.88-1.88c1.25-0.5,2.12-1.12,2.62-1.88c-1.5,0.25-3.13,0.38-4.88,0.38c-2,0-4.12,0-6.38,0
		c-1.25-0.5-1.38-1.12-0.38-1.88c6.5-0.5,12-1.12,16.5-1.88C767.2,184.88,770.95,184.01,772.2,183.26z M766.57,201.63
		c1.5,0.75,3,1.5,4.5,2.25c1.75,0.75,3.62,1.5,5.62,2.25c2.25,0.75,4.37,1.5,6.38,2.25c-1.75,3.5-4,4.63-6.75,3.38
		c-1.5-0.75-3.13-1.88-4.88-3.38c-1.25-1-2.38-2-3.38-3c-1-0.75-1.88-1.5-2.62-2.25C765.45,202.38,765.82,201.88,766.57,201.63z"/>
	<path class="st4" d="M787.2,206.51c3.75-1.25,9.25-2.75,16.5-4.5c0.25,0,0.5,0.13,0.75,0.38c0,0.75-2.38,2.5-7.12,5.25
		c-3.75,1.75-6.75,2.88-9,3.38c-1,0.25-1.63,0.13-1.88-0.38c-0.5-0.75-0.75-1.62-0.75-2.62
		C785.95,207.26,786.45,206.76,787.2,206.51z M798.82,184.01c0.5-0.25,1.25,0.13,2.25,1.12c0.5,0.75,0.62,1.38,0.38,1.88
		c-0.25,0.75-1.12,1.38-2.62,1.88c-2.5,1.25-4.63,2.5-6.38,3.75c-0.25,0.25-0.13,0.5,0.38,0.75c1.25,0,3-0.12,5.25-0.38
		c1-0.75,2-1.75,3-3c0.5-0.5,1.25,0,2.25,1.5c0.5,0.75,0.38,1.38-0.38,1.88c-2.25,1.75-4.12,3.13-5.62,4.12
		c-1,0.75-1.38,1.12-1.12,1.12c2.25-0.25,4.62-0.75,7.12-1.5c0.75,0.25,0.62,0.75-0.38,1.5c-2,0.75-4.5,1.75-7.5,3
		c-1,0.25-1.88,0.5-2.62,0.75c-0.5,0.25-1,0.13-1.5-0.38c-1-1.5-1.12-2.5-0.38-3c2-0.5,4-1.88,6-4.12c-2.5,0.25-4.5,0.63-6,1.12
		c-1,0.5-1.75-0.25-2.25-2.25c0-1,0.25-1.75,0.75-2.25C792.95,190.01,796.07,187.51,798.82,184.01z M813.82,184.01
		c0.5,0,1,0.13,1.5,0.38c0.5,0.5,0.75,1.25,0.75,2.25c0,1.5,0.87,2.13,2.62,1.88c3,0.25,5.25,0.5,6.75,0.75c0.5,0.5,0.62,1,0.38,1.5
		c-0.75,0.25-1.5,0.38-2.25,0.38c-4.5-0.25-7.5-0.12-9,0.38c-1.75,1.25-3,2.38-3.75,3.38c-0.25,0.75,0.12,1.12,1.12,1.12
		c1.25,0.25,3.12,0,5.62-0.75c-1.25-1.25-1-2.12,0.75-2.62c0.5,0,1.12,0.25,1.88,0.75c1,1,2.12,2.13,3.38,3.38
		c0.25,0.5,0.62,1.12,1.12,1.88c0.25,0.75-0.13,1-1.12,0.75c-1.5-0.5-3.13-1.25-4.88-2.25c-0.5,1-1,2.75-1.5,5.25
		c0.25,2.75,1.88,4.38,4.88,4.88c3,0.5,5.87-0.12,8.62-1.88c-0.75,5-2.62,7.63-5.62,7.88c-1.75,0-3.5-0.38-5.25-1.12
		c-2-1-3.5-2.37-4.5-4.12c-0.75-1.5-1-3.62-0.75-6.38c0.25-1.5,0.62-2.75,1.12-3.75l-4.5,0.75c0,1.25,0.12,2.5,0.38,3.75
		c-0.25,3-1,5.13-2.25,6.38c-1.25,1.75-3.25,2.75-6,3c-2.5,0.25-4.38-0.62-5.62-2.62c0-0.25,0.25-0.38,0.75-0.38
		c1.5,0,3.38-0.38,5.62-1.12c2.75-1.5,4.25-3.25,4.5-5.25v-3.38l-1.88,0.38c-0.75,0-1.25-0.38-1.5-1.12
		c-0.5-1.25,0.12-2.37,1.88-3.38c1.5-1,2.62-2.25,3.38-3.75c-2,0.25-3.63,0.63-4.88,1.12c-1.25,0.25-1.75-0.38-1.5-1.88
		c0.75-1,1.5-1.62,2.25-1.88c1,0.25,2,0.25,3,0c1.25,0,2.12-0.62,2.62-1.88C812.2,185.13,812.82,184.26,813.82,184.01z"/>
</g>
</svg>
